<?xml version="1.0" encoding="utf-8"?>
<!-- Generator: Adobe Illustrator 27.4.0, SVG Export Plug-In . SVG Version: 6.00 Build 0)  -->
<svg version="1.1" id="Layer_1" xmlns="http://www.w3.org/2000/svg" xmlns:xlink="http://www.w3.org/1999/xlink" x="0px" y="0px"
	 viewBox="0 0 422.3 112.6" style="enable-background:new 0 0 422.3 112.6;" xml:space="preserve">
<style type="text/css">
	.st0{fill:#282828;}
	.st1{fill:#EE2E2B;}
	.st2{fill-rule:evenodd;clip-rule:evenodd;}
</style>
<g>
	<path class="st0" d="M136.6,63.7c0-7.1,5.4-12.3,11.7-12.3S160,56.6,160,63.7S154.7,76,148.3,76C142,76,136.6,70.8,136.6,63.7
		L136.6,63.7z M122.1,63.7c0,11.9,8.5,25.9,26.2,25.9s26.2-13.9,26.2-25.9c0-11.9-8.5-25.8-26.2-25.8
		C130.6,37.9,122.1,51.8,122.1,63.7L122.1,63.7L122.1,63.7z M79.8,57.8c0.3-2.3,3.3-7.7,10.9-7.7c7.5,0,10.5,5.4,10.9,7.7H79.8z
		 M115.9,68.8c1.1-8.9-0.7-16.7-6.8-23.3c-4.6-4.8-11-7.7-18.4-7.7c-14.8,0-25.5,12.5-25.5,26.1C65.2,78.4,77,89.7,91,89.7
		c5,0,9.8-1.5,13.9-4.4c4.1-2.8,7.5-7,9.9-12.4H99.7c-1.8,2.5-4.2,4.6-8.9,4.6c-5.7,0-10.6-3.4-11.2-8.6L115.9,68.8L115.9,68.8z
		 M16.1,23.2H1.8V88h15.9l-0.4-39l24.8,39.1h14.4V23.2H40.6L41,62.7L16.1,23.2z"/>
	<path class="st1" d="M360.4,88.1H377V37.8h12.7V23.2h-42.1v14.5h12.8V88.1z M308.2,88.1h16.6V63.4h18.1V48.8h-18.1v-11h18.8V23.2
		h-35.4V88.1z M247.4,55.5c0-9.1,6.2-18.9,17.7-18.9c11.9,0,17.6,10.8,17.6,19.2c0,8.3-5.7,19-17.5,19
		C254.1,74.7,247.4,65.5,247.4,55.5L247.4,55.5L247.4,55.5z M230.8,56.4c0,16.7,13.7,32.9,34.1,32.9c20.2,0,34.4-15.6,34.4-33.7
		c0-18-14.3-33.6-34.3-33.6C247.1,22,230.8,35.1,230.8,56.4L230.8,56.4L230.8,56.4z M179.7,66.6c-0.4,12.7,6.4,22.7,23.4,22.7
		c17.2,0,22.6-10.4,22.6-20.8c0-7.5-3.1-13.1-15.2-18.6c-11.7-5.3-13.4-6-13.4-9c0-3.1,2.8-5.1,5.7-5.1c5.1,0,5.6,4.1,6,6.3h16.4
		C224.9,26.6,212.3,22,203.4,22c-10.9,0-22.7,6.9-22.7,20c0,12.2,11.3,16.7,15.9,18.6c10,4.2,12.7,5.3,12.7,8.7c0,3-2.4,6.2-6.3,6.2
		c-2.1,0-6.8-1.3-6.8-8.9L179.7,66.6L179.7,66.6z"/>
	<g>
		<path class="st2" d="M403,20.1c-5.8,0-10.5,4.7-10.5,10.5c0,5.8,4.7,10.5,10.5,10.5c5.8,0,10.5-4.7,10.5-10.5
			C413.5,24.8,408.8,20.1,403,20.1 M403,39.4c-4.8,0-8.8-3.9-8.8-8.8c0-4.8,3.9-8.8,8.8-8.8c4.8,0,8.8,3.9,8.8,8.8
			C411.8,35.4,407.8,39.4,403,39.4"/>
		<path d="M400.1,25.6c0.6-0.1,1.6-0.2,2.5-0.2c1.3,0,2.2,0.2,2.8,0.7c0.5,0.4,0.8,1.1,0.8,1.9c0,1.2-0.8,2-1.7,2.3v0
			c0.7,0.2,1.1,0.9,1.3,1.8c0.3,1.1,0.6,2.2,0.7,2.6h-1.7c-0.1-0.3-0.4-1-0.6-2.2c-0.3-1.2-0.7-1.6-1.7-1.6h-0.8v3.8h-1.7V25.6z
			 M401.7,29.7h1c1.1,0,1.8-0.6,1.8-1.5c0-1-0.7-1.5-1.8-1.5c-0.5,0-0.9,0-1,0.1V29.7z"/>
	</g>
</g>
</svg>
